<svg xmlns="http://www.w3.org/2000/svg" viewBox="0 0 1200 900">
<defs><linearGradient id="bsky" x2="0" y2="1"><stop stop-color="#69C7FF"/><stop offset="1" stop-color="#F4FAFF"/></linearGradient></defs><rect width="1200" height="900" fill="url(#bsky)"/><path d="M0 570 250 270 450 515 710 190 930 500 1200 310v590H0Z" fill="#3E795E"/><path d="M0 680c265-100 550-100 1200 10v210H0z" fill="#2AAFC4"/><g stroke="#4A3029" stroke-width="24" fill="none"><path d="M130 610h940"/><path d="M180 610 275 395l95 215M830 610l95-215 95 215"/><path d="M275 395h650"/></g><g stroke="#D9873E" stroke-width="9"><path d="M275 395v215M405 395v215M535 395v215M665 395v215M795 395v215M925 395v215"/></g><text x="72" y="92" fill="#17324A" font-family="system-ui" font-size="54" font-weight="800">MON BRIDGE</text><text x="74" y="147" fill="#17324A" opacity=".65" font-family="system-ui" font-size="28">slow morning, loud memories</text></svg>
