<svg xmlns="http://www.w3.org/2000/svg" viewBox="0 0 1200 900">
<defs><linearGradient id="sky" x2="0" y2="1"><stop stop-color="#7C78FF"/><stop offset="1" stop-color="#FFC7A8"/></linearGradient><linearGradient id="water" x2="0" y2="1"><stop stop-color="#35D7CA"/><stop offset="1" stop-color="#147C9E"/></linearGradient></defs>
<rect width="1200" height="900" fill="url(#sky)"/><circle cx="895" cy="190" r="90" fill="#FFE58E"/><path d="M0 520 260 230l210 250 210-300 330 350 190-160v300H0Z" fill="#37346E"/><path d="M0 585 260 330l210 240 210-250 330 300 190-135v170H0Z" fill="#514E90"/><path d="M0 590h1200v310H0z" fill="url(#water)"/><path d="M0 660c170-70 335-65 500 15 177 86 406 78 700-30v255H0Z" fill="#31C9BE" opacity=".45"/><rect x="130" y="545" width="310" height="75" rx="20" fill="#F8E4C2"/><path d="m115 545 170-110 170 110" fill="#FF7A6E"/><rect x="207" y="576" width="160" height="44" fill="#5B4CF0"/><text x="72" y="90" fill="white" font-family="system-ui" font-size="54" font-weight="800">KHAO LAEM DAM</text><text x="74" y="145" fill="white" opacity=".8" font-family="system-ui" font-size="28">first night, first legend</text>
</svg>
