<svg xmlns="http://www.w3.org/2000/svg" viewBox="0 0 1200 900"><defs><linearGradient id="f" x2="1" y2="1"><stop stop-color="#6C5CE7"/><stop offset="1" stop-color="#FF6B8A"/></linearGradient></defs><rect width="1200" height="900" fill="url(#f)"/><circle cx="950" cy="160" r="90" fill="#FFE18A"/><path d="M0 600 230 340l210 235 210-310 290 330 260-250v555H0z" fill="#202051" opacity=".7"/><g transform="translate(235 310)"><g fill="#FFE1C7"><circle cx="100" cy="160" r="72"/><circle cx="310" cy="120" r="72"/><circle cx="520" cy="170" r="72"/><circle cx="730" cy="125" r="72"/></g><g><path d="M10 410c5-150 180-150 185 0" fill="#31D6B4"/><path d="M220 410c5-170 180-170 185 0" fill="#FFB84D"/><path d="M430 410c5-145 180-145 185 0" fill="#7BD7FF"/><path d="M640 410c5-165 180-165 185 0" fill="#FF91A7"/></g><g fill="#2A2340"><path d="M36 145c10-100 135-115 165-20-55-20-110-12-165 20Z"/><path d="M245 105c20-98 148-92 180 5-58-18-118-20-180-5Z"/><path d="M450 155c12-95 145-105 180-5-70-30-130-22-180 5Z"/><path d="M655 115c15-95 145-100 180-4-64-24-125-24-180 4Z"/></g></g><text x="70" y="92" fill="white" font-family="system-ui" font-size="54" font-weight="800">THE CREW</text><text x="72" y="147" fill="white" opacity=".8" font-family="system-ui" font-size="28">same people, new stories</text></svg>
