<svg xmlns="http://www.w3.org/2000/svg" viewBox="0 0 512 512">
  <defs>
    <linearGradient id="g" x1="70" y1="40" x2="440" y2="470" gradientUnits="userSpaceOnUse">
      <stop stop-color="#7C5CFF"/><stop offset="0.52" stop-color="#5B4CF0"/><stop offset="1" stop-color="#FF6B8A"/>
    </linearGradient>
    <linearGradient id="sun" x1="160" y1="100" x2="350" y2="350" gradientUnits="userSpaceOnUse">
      <stop stop-color="#FFE28A"/><stop offset="1" stop-color="#FF9A62"/>
    </linearGradient>
  </defs>
  <rect width="512" height="512" rx="126" fill="url(#g)"/>
  <circle cx="348" cy="150" r="70" fill="url(#sun)"/>
  <path d="M72 356 184 204l72 91 56-72 128 165H72Z" fill="#fff" opacity=".97"/>
  <path d="M72 389c72-52 145-52 216 0 52 38 101 41 152 7v44H72v-51Z" fill="#31D6B4"/>
  <path d="M175 350c23-24 46-36 69-36 24 0 49 13 77 40" fill="none" stroke="#5B4CF0" stroke-width="25" stroke-linecap="round"/>
  <circle cx="206" cy="321" r="17" fill="#5B4CF0"/><circle cx="286" cy="321" r="17" fill="#5B4CF0"/>
</svg>
